<svg width="196" height="45" viewBox="0 0 196 45" fill="none" xmlns="http://www.w3.org/2000/svg">
<rect width="196" height="44.3014" fill="#D34040"/>
<path d="M72.7506 28.0685V16.3524H77.4416C78.3035 16.3524 79.0224 16.4802 79.5983 16.7357C80.1742 16.9913 80.6071 17.3459 80.8969 17.7998C81.1868 18.2498 81.3317 18.7685 81.3317 19.3558C81.3317 19.8135 81.2402 20.2158 81.0571 20.5629C80.874 20.9061 80.6223 21.1884 80.302 21.4096C79.9854 21.627 79.6231 21.7814 79.215 21.8729V21.9874C79.6612 22.0064 80.0788 22.1323 80.4679 22.3649C80.8607 22.5976 81.1791 22.9237 81.4232 23.3432C81.6673 23.7589 81.7893 24.2547 81.7893 24.8306C81.7893 25.4522 81.6349 26.0071 81.326 26.4953C81.0209 26.9797 80.5689 27.3629 79.9701 27.6452C79.3714 27.9274 78.6334 28.0685 77.7562 28.0685H72.7506ZM75.2277 26.0434H77.2471C77.9374 26.0434 78.4408 25.9118 78.7574 25.6486C79.0739 25.3817 79.2322 25.027 79.2322 24.5846C79.2322 24.2604 79.154 23.9744 78.9976 23.7265C78.8413 23.4786 78.6182 23.2841 78.3283 23.143C78.0423 23.0018 77.7009 22.9313 77.3043 22.9313H75.2277V26.0434ZM75.2277 21.2551H77.064C77.4034 21.2551 77.7047 21.196 77.9679 21.0778C78.2349 20.9557 78.4446 20.7841 78.5972 20.5629C78.7535 20.3417 78.8317 20.0766 78.8317 19.7677C78.8317 19.3444 78.6811 19.003 78.3798 18.7437C78.0823 18.4844 77.659 18.3547 77.1098 18.3547H75.2277V21.2551ZM88.9903 24.3271V19.2815H91.4274V28.0685H89.0876V26.4724H88.996C88.7977 26.9873 88.4678 27.4011 88.0064 27.7138C87.5487 28.0266 86.99 28.1829 86.3302 28.1829C85.7428 28.1829 85.2261 28.0494 84.7799 27.7825C84.3336 27.5155 83.9847 27.136 83.733 26.644C83.4851 26.1521 83.3592 25.5628 83.3554 24.8763V19.2815H85.7924V24.4416C85.7962 24.9602 85.9354 25.3702 86.21 25.6715C86.4846 25.9728 86.8527 26.1235 87.3141 26.1235C87.6078 26.1235 87.8824 26.0567 88.1379 25.9232C88.3935 25.7859 88.5994 25.5838 88.7558 25.3168C88.9159 25.0499 88.9941 24.72 88.9903 24.3271ZM98.0505 19.2815V21.1121H92.7589V19.2815H98.0505ZM93.9602 17.1762H96.3972V25.3683C96.3972 25.5933 96.4316 25.7688 96.5002 25.8946C96.5689 26.0167 96.6642 26.1025 96.7863 26.1521C96.9121 26.2016 97.057 26.2264 97.221 26.2264C97.3354 26.2264 97.4499 26.2169 97.5643 26.1978C97.6787 26.1749 97.7664 26.1578 97.8274 26.1463L98.2107 27.9598C98.0887 27.9979 97.917 28.0418 97.6958 28.0914C97.4746 28.1448 97.2058 28.1772 96.8892 28.1886C96.3019 28.2115 95.787 28.1333 95.3446 27.9541C94.906 27.7748 94.5647 27.4964 94.3206 27.1189C94.0765 26.7413 93.9564 26.2646 93.9602 25.6887V17.1762ZM104.312 19.2815V21.1121H99.0202V19.2815H104.312ZM100.222 17.1762H102.659V25.3683C102.659 25.5933 102.693 25.7688 102.762 25.8946C102.83 26.0167 102.926 26.1025 103.048 26.1521C103.173 26.2016 103.318 26.2264 103.482 26.2264C103.597 26.2264 103.711 26.2169 103.826 26.1978C103.94 26.1749 104.028 26.1578 104.089 26.1463L104.472 27.9598C104.35 27.9979 104.178 28.0418 103.957 28.0914C103.736 28.1448 103.467 28.1772 103.151 28.1886C102.563 28.2115 102.048 28.1333 101.606 27.9541C101.167 27.7748 100.826 27.4964 100.582 27.1189C100.338 26.7413 100.218 26.2646 100.222 25.6887V17.1762ZM109.775 28.2401C108.887 28.2401 108.118 28.0513 107.47 27.6738C106.825 27.2924 106.327 26.7623 105.977 26.0834C105.626 25.4007 105.45 24.6094 105.45 23.7093C105.45 22.8016 105.626 22.0083 105.977 21.3295C106.327 20.6468 106.825 20.1167 107.47 19.7391C108.118 19.3577 108.887 19.167 109.775 19.167C110.664 19.167 111.43 19.3577 112.075 19.7391C112.723 20.1167 113.223 20.6468 113.574 21.3295C113.925 22.0083 114.1 22.8016 114.1 23.7093C114.1 24.6094 113.925 25.4007 113.574 26.0834C113.223 26.7623 112.723 27.2924 112.075 27.6738C111.43 28.0513 110.664 28.2401 109.775 28.2401ZM109.787 26.3523C110.191 26.3523 110.528 26.2379 110.799 26.009C111.07 25.7764 111.274 25.4598 111.411 25.0594C111.552 24.6589 111.623 24.2032 111.623 23.6921C111.623 23.1811 111.552 22.7253 111.411 22.3249C111.274 21.9244 111.07 21.6079 110.799 21.3752C110.528 21.1426 110.191 21.0263 109.787 21.0263C109.379 21.0263 109.035 21.1426 108.757 21.3752C108.482 21.6079 108.274 21.9244 108.133 22.3249C107.996 22.7253 107.927 23.1811 107.927 23.6921C107.927 24.2032 107.996 24.6589 108.133 25.0594C108.274 25.4598 108.482 25.7764 108.757 26.009C109.035 26.2379 109.379 26.3523 109.787 26.3523ZM118.122 22.9885V28.0685H115.685V19.2815H118.007V20.8318H118.11C118.305 20.3207 118.631 19.9165 119.089 19.619C119.546 19.3177 120.101 19.167 120.753 19.167C121.363 19.167 121.896 19.3005 122.349 19.5675C122.803 19.8345 123.156 20.2158 123.408 20.7116C123.659 21.2036 123.785 21.791 123.785 22.4736V28.0685H121.348V22.9084C121.352 22.3707 121.215 21.9511 120.936 21.6498C120.658 21.3447 120.275 21.1922 119.786 21.1922C119.458 21.1922 119.169 21.2627 118.917 21.4038C118.669 21.545 118.475 21.7509 118.333 22.0217C118.196 22.2887 118.126 22.6109 118.122 22.9885Z" fill="white"/>
</svg>
